<svg width="306" height="156" viewBox="0 0 306 156" fill="none" xmlns="http://www.w3.org/2000/svg">
<path opacity="0.75" d="M5.7 1.392H1.8V4.488H5.52V5.28H1.8V9H0.96V0.599999H5.7V1.392ZM12.0438 8.244C11.4358 8.844 10.6918 9.144 9.81178 9.144C8.93178 9.144 8.18378 8.844 7.56778 8.244C6.95978 7.636 6.65578 6.888 6.65578 6C6.65578 5.112 6.95978 4.368 7.56778 3.768C8.18378 3.16 8.93178 2.856 9.81178 2.856C10.6918 2.856 11.4358 3.16 12.0438 3.768C12.6598 4.368 12.9678 5.112 12.9678 6C12.9678 6.888 12.6598 7.636 12.0438 8.244ZM8.13178 7.692C8.58778 8.148 9.14778 8.376 9.81178 8.376C10.4758 8.376 11.0358 8.148 11.4918 7.692C11.9478 7.228 12.1758 6.664 12.1758 6C12.1758 5.336 11.9478 4.776 11.4918 4.32C11.0358 3.856 10.4758 3.624 9.81178 3.624C9.14778 3.624 8.58778 3.856 8.13178 4.32C7.67578 4.776 7.44778 5.336 7.44778 6C7.44778 6.664 7.67578 7.228 8.13178 7.692ZM15.0851 3.996C15.4531 3.268 16.0851 2.904 16.9811 2.904V3.672C16.4371 3.672 15.9851 3.832 15.6251 4.152C15.2651 4.472 15.0851 4.976 15.0851 5.664V9H14.2931V3H15.0851V3.996ZM23.1873 7.584C22.9633 8.016 22.6393 8.372 22.2153 8.652C21.7993 8.924 21.3313 9.084 20.8113 9.132V9.54C21.1553 9.604 21.4273 9.72 21.6273 9.888C21.8273 10.056 21.9273 10.264 21.9273 10.512C21.9273 11.328 21.1073 11.688 19.4673 11.592V10.944C20.6433 11.04 21.2313 10.896 21.2313 10.512C21.2313 10.208 20.8593 10.044 20.1153 10.02V9.12C19.3073 9.032 18.6433 8.696 18.1233 8.112C17.6033 7.528 17.3433 6.824 17.3433 6C17.3433 5.112 17.6433 4.368 18.2433 3.768C18.8433 3.16 19.5953 2.856 20.4993 2.856C21.0913 2.856 21.6233 3 22.0953 3.288C22.5673 3.568 22.9113 3.948 23.1273 4.428L22.4793 4.8C22.3193 4.44 22.0593 4.156 21.6993 3.948C21.3473 3.732 20.9473 3.624 20.4993 3.624C19.8353 3.624 19.2753 3.856 18.8193 4.32C18.3633 4.776 18.1353 5.336 18.1353 6C18.1353 6.664 18.3633 7.228 18.8193 7.692C19.2753 8.148 19.8353 8.376 20.4993 8.376C20.9473 8.376 21.3473 8.272 21.6993 8.064C22.0513 7.848 22.3273 7.56 22.5273 7.2L23.1873 7.584ZM29.4258 3H30.2178V9H29.4258V7.824C28.8738 8.704 28.0658 9.144 27.0018 9.144C26.1458 9.144 25.4138 8.84 24.8058 8.232C24.2058 7.624 23.9058 6.88 23.9058 6C23.9058 5.12 24.2058 4.376 24.8058 3.768C25.4138 3.16 26.1458 2.856 27.0018 2.856C28.0658 2.856 28.8738 3.296 29.4258 4.176V3ZM25.3818 7.692C25.8378 8.148 26.3978 8.376 27.0618 8.376C27.7258 8.376 28.2858 8.148 28.7418 7.692C29.1978 7.228 29.4258 6.664 29.4258 6C29.4258 5.336 29.1978 4.776 28.7418 4.32C28.2858 3.856 27.7258 3.624 27.0618 3.624C26.3978 3.624 25.8378 3.856 25.3818 4.32C24.9258 4.776 24.6978 5.336 24.6978 6C24.6978 6.664 24.9258 7.228 25.3818 7.692Z" fill="white"/>
<rect x="90" y="2" width="1" height="8" fill="white"/>
<rect x="95" y="2" width="1" height="8" fill="white"/>
<rect x="100" y="2" width="1" height="8" fill="white"/>
<rect x="105" y="2" width="1" height="8" fill="white"/>
<rect x="110" y="2" width="1" height="8" fill="white"/>
<rect x="115" y="2" width="1" height="8" fill="white"/>
<rect x="120" y="2" width="1" height="8" fill="white"/>
<rect x="125" y="2" width="1" height="8" fill="white"/>
<rect x="130" y="2" width="1" height="8" fill="white"/>
<rect x="135" y="2" width="1" height="8" fill="white"/>
<rect x="140" y="2" width="1" height="8" fill="white"/>
<rect x="145" y="2" width="1" height="8" fill="white"/>
<rect x="150" y="2" width="1" height="8" fill="white"/>
<rect x="155" y="2" width="1" height="8" fill="white"/>
<rect x="160" y="2" width="1" height="8" fill="white"/>
<rect x="165" y="2" width="1" height="8" fill="white"/>
<rect x="170" y="2" width="1" height="8" fill="white"/>
<rect x="175" y="2" width="1" height="8" fill="white"/>
<rect x="180" y="2" width="1" height="8" fill="white"/>
<rect x="185" y="2" width="1" height="8" fill="white"/>
<rect x="190" y="2" width="1" height="8" fill="white"/>
<rect x="195" y="2" width="1" height="8" fill="white"/>
<rect x="200" y="2" width="1" height="8" fill="white"/>
<rect x="205" y="2" width="1" height="8" fill="white"/>
<rect x="210" y="2" width="1" height="8" fill="white"/>
<rect x="215" y="2" width="1" height="8" fill="white"/>
<rect x="220" y="2" width="1" height="8" fill="white"/>
<rect x="225" y="2" width="1" height="8" fill="white"/>
<rect x="230" y="2" width="1" height="8" fill="white"/>
<rect x="235" y="2" width="1" height="8" fill="white"/>
<rect x="240" y="2" width="1" height="8" fill="white"/>
<rect x="245" width="1" height="12" fill="white"/>
<rect opacity="0.25" x="250" y="2" width="1" height="8" fill="white"/>
<rect opacity="0.25" x="255" y="2" width="1" height="8" fill="white"/>
<rect opacity="0.25" x="260" y="2" width="1" height="8" fill="white"/>
<rect opacity="0.25" x="265" y="2" width="1" height="8" fill="white"/>
<rect opacity="0.25" x="270" y="2" width="1" height="8" fill="white"/>
<rect opacity="0.25" x="275" y="2" width="1" height="8" fill="white"/>
<rect opacity="0.25" x="280" y="2" width="1" height="8" fill="white"/>
<rect opacity="0.25" x="285" y="2" width="1" height="8" fill="white"/>
<rect opacity="0.25" x="290" y="2" width="1" height="8" fill="white"/>
<rect opacity="0.25" x="295" y="2" width="1" height="8" fill="white"/>
<rect opacity="0.25" x="300" y="2" width="1" height="8" fill="white"/>
<rect opacity="0.25" x="305" y="2" width="1" height="8" fill="white"/>
<path opacity="0.75" d="M0.96 36.6H1.8V45H0.96V36.6ZM6.41363 38.856C7.14163 38.856 7.71363 39.08 8.12963 39.528C8.55363 39.968 8.76562 40.564 8.76562 41.316V45H7.97363V41.316C7.97363 40.78 7.82963 40.364 7.54163 40.068C7.26163 39.772 6.86163 39.624 6.34163 39.624C5.76563 39.624 5.29763 39.808 4.93763 40.176C4.57763 40.536 4.39763 41.096 4.39763 41.856V45H3.60563V39H4.39763V39.936C4.84563 39.216 5.51763 38.856 6.41363 38.856ZM13.477 39.768H11.749V43.404C11.749 43.732 11.813 43.968 11.941 44.112C12.069 44.248 12.261 44.32 12.517 44.328C12.773 44.328 13.093 44.32 13.477 44.304V45C12.637 45.128 12.005 45.068 11.581 44.82C11.165 44.572 10.957 44.1 10.957 43.404V39.768H9.69703V39H10.957V37.56L11.749 37.32V39H13.477V39.768ZM17.2058 38.856C18.0938 38.856 18.8098 39.172 19.3538 39.804C19.9058 40.428 20.1818 41.168 20.1818 42.024C20.1818 42.112 20.1738 42.236 20.1578 42.396H14.8898C14.9698 43.004 15.2258 43.488 15.6578 43.848C16.0978 44.2 16.6378 44.376 17.2778 44.376C17.7338 44.376 18.1258 44.284 18.4538 44.1C18.7898 43.908 19.0418 43.66 19.2098 43.356L19.9058 43.764C19.6418 44.188 19.2818 44.524 18.8258 44.772C18.3698 45.02 17.8498 45.144 17.2658 45.144C16.3218 45.144 15.5538 44.848 14.9618 44.256C14.3698 43.664 14.0738 42.912 14.0738 42C14.0738 41.104 14.3658 40.356 14.9498 39.756C15.5338 39.156 16.2858 38.856 17.2058 38.856ZM17.2058 39.624C16.5818 39.624 16.0578 39.812 15.6338 40.188C15.2178 40.556 14.9698 41.036 14.8898 41.628H19.3658C19.2858 40.996 19.0418 40.504 18.6338 40.152C18.2258 39.8 17.7498 39.624 17.2058 39.624ZM21.4416 45V36.24H22.2336V45H21.4416ZM24.7182 37.56C24.6062 37.672 24.4702 37.728 24.3102 37.728C24.1502 37.728 24.0142 37.672 23.9022 37.56C23.7902 37.448 23.7342 37.312 23.7342 37.152C23.7342 36.992 23.7902 36.856 23.9022 36.744C24.0142 36.632 24.1502 36.576 24.3102 36.576C24.4702 36.576 24.6062 36.632 24.7182 36.744C24.8302 36.856 24.8862 36.992 24.8862 37.152C24.8862 37.312 24.8302 37.448 24.7182 37.56ZM23.9142 45V39H24.7062V45H23.9142ZM31.5469 39H32.3389V44.76C32.3389 45.624 32.0429 46.304 31.4509 46.8C30.8589 47.296 30.1509 47.544 29.3269 47.544C27.9189 47.544 26.9709 47.056 26.4829 46.08L27.1789 45.684C27.5389 46.412 28.2549 46.776 29.3269 46.776C30.0149 46.776 30.5549 46.592 30.9469 46.224C31.3469 45.864 31.5469 45.376 31.5469 44.76V43.824C30.9949 44.704 30.1869 45.144 29.1229 45.144C28.2669 45.144 27.5349 44.84 26.9269 44.232C26.3269 43.624 26.0269 42.88 26.0269 42C26.0269 41.12 26.3269 40.376 26.9269 39.768C27.5349 39.16 28.2669 38.856 29.1229 38.856C30.1869 38.856 30.9949 39.296 31.5469 40.176V39ZM27.5029 43.692C27.9589 44.148 28.5189 44.376 29.1829 44.376C29.8469 44.376 30.4069 44.148 30.8629 43.692C31.3189 43.228 31.5469 42.664 31.5469 42C31.5469 41.336 31.3189 40.776 30.8629 40.32C30.4069 39.856 29.8469 39.624 29.1829 39.624C28.5189 39.624 27.9589 39.856 27.5029 40.32C27.0469 40.776 26.8189 41.336 26.8189 42C26.8189 42.664 27.0469 43.228 27.5029 43.692ZM36.7158 37.116L35.8758 38.16H34.9758L36.2478 36.6H37.1838L38.4558 38.16H37.5558L36.7158 37.116ZM36.7878 38.856C37.6758 38.856 38.3918 39.172 38.9358 39.804C39.4878 40.428 39.7638 41.168 39.7638 42.024C39.7638 42.112 39.7558 42.236 39.7398 42.396H34.4718C34.5518 43.004 34.8078 43.488 35.2398 43.848C35.6798 44.2 36.2198 44.376 36.8598 44.376C37.3158 44.376 37.7078 44.284 38.0358 44.1C38.3718 43.908 38.6238 43.66 38.7918 43.356L39.4878 43.764C39.2238 44.188 38.8638 44.524 38.4078 44.772C37.9518 45.02 37.4318 45.144 36.8478 45.144C35.9038 45.144 35.1358 44.848 34.5438 44.256C33.9518 43.664 33.6558 42.912 33.6558 42C33.6558 41.104 33.9478 40.356 34.5318 39.756C35.1158 39.156 35.8678 38.856 36.7878 38.856ZM36.7878 39.624C36.1638 39.624 35.6398 39.812 35.2158 40.188C34.7998 40.556 34.5518 41.036 34.4718 41.628H38.9478C38.8678 40.996 38.6238 40.504 38.2158 40.152C37.8078 39.8 37.3318 39.624 36.7878 39.624ZM43.8316 38.856C44.5596 38.856 45.1316 39.08 45.5476 39.528C45.9716 39.968 46.1836 40.564 46.1836 41.316V45H45.3916V41.316C45.3916 40.78 45.2476 40.364 44.9596 40.068C44.6796 39.772 44.2796 39.624 43.7596 39.624C43.1836 39.624 42.7156 39.808 42.3556 40.176C41.9956 40.536 41.8156 41.096 41.8156 41.856V45H41.0236V39H41.8156V39.936C42.2636 39.216 42.9356 38.856 43.8316 38.856ZM50.511 45.144C49.607 45.144 48.855 44.844 48.255 44.244C47.655 43.636 47.355 42.888 47.355 42C47.355 41.112 47.655 40.368 48.255 39.768C48.855 39.16 49.607 38.856 50.511 38.856C51.103 38.856 51.635 39 52.107 39.288C52.579 39.568 52.923 39.948 53.139 40.428L52.491 40.8C52.331 40.44 52.071 40.156 51.711 39.948C51.359 39.732 50.959 39.624 50.511 39.624C49.847 39.624 49.287 39.856 48.831 40.32C48.375 40.776 48.147 41.336 48.147 42C48.147 42.664 48.375 43.228 48.831 43.692C49.287 44.148 49.847 44.376 50.511 44.376C50.959 44.376 51.359 44.272 51.711 44.064C52.063 43.848 52.339 43.56 52.539 43.2L53.199 43.584C52.951 44.064 52.587 44.444 52.107 44.724C51.627 45.004 51.095 45.144 50.511 45.144ZM55.1401 37.56C55.0281 37.672 54.8921 37.728 54.7321 37.728C54.5721 37.728 54.4361 37.672 54.3241 37.56C54.2121 37.448 54.1561 37.312 54.1561 37.152C54.1561 36.992 54.2121 36.856 54.3241 36.744C54.4361 36.632 54.5721 36.576 54.7321 36.576C54.8921 36.576 55.0281 36.632 55.1401 36.744C55.2521 36.856 55.3081 36.992 55.3081 37.152C55.3081 37.312 55.2521 37.448 55.1401 37.56ZM54.3361 45V39H55.1281V45H54.3361ZM61.9688 39H62.7608V45H61.9688V43.824C61.4168 44.704 60.6088 45.144 59.5448 45.144C58.6888 45.144 57.9568 44.84 57.3488 44.232C56.7488 43.624 56.4488 42.88 56.4488 42C56.4488 41.12 56.7488 40.376 57.3488 39.768C57.9568 39.16 58.6888 38.856 59.5448 38.856C60.6088 38.856 61.4168 39.296 61.9688 40.176V39ZM57.9248 43.692C58.3808 44.148 58.9408 44.376 59.6048 44.376C60.2688 44.376 60.8288 44.148 61.2848 43.692C61.7408 43.228 61.9688 42.664 61.9688 42C61.9688 41.336 61.7408 40.776 61.2848 40.32C60.8288 39.856 60.2688 39.624 59.6048 39.624C58.9408 39.624 58.3808 39.856 57.9248 40.32C57.4688 40.776 57.2408 41.336 57.2408 42C57.2408 42.664 57.4688 43.228 57.9248 43.692Z" fill="white"/>
<rect x="90" y="38" width="1" height="8" fill="white"/>
<rect x="95" y="38" width="1" height="8" fill="white"/>
<rect x="100" y="38" width="1" height="8" fill="white"/>
<rect x="105" y="38" width="1" height="8" fill="white"/>
<rect x="110" y="38" width="1" height="8" fill="white"/>
<rect x="115" y="38" width="1" height="8" fill="white"/>
<rect x="120" y="38" width="1" height="8" fill="white"/>
<rect x="125" y="38" width="1" height="8" fill="white"/>
<rect x="130" y="38" width="1" height="8" fill="white"/>
<rect x="135" y="38" width="1" height="8" fill="white"/>
<rect x="140" y="38" width="1" height="8" fill="white"/>
<rect x="145" y="38" width="1" height="8" fill="white"/>
<rect x="150" y="38" width="1" height="8" fill="white"/>
<rect x="155" y="38" width="1" height="8" fill="white"/>
<rect x="160" y="38" width="1" height="8" fill="white"/>
<rect x="165" y="38" width="1" height="8" fill="white"/>
<rect x="170" y="38" width="1" height="8" fill="white"/>
<rect x="175" y="38" width="1" height="8" fill="white"/>
<rect x="180" y="38" width="1" height="8" fill="white"/>
<rect x="185" y="38" width="1" height="8" fill="white"/>
<rect x="190" y="38" width="1" height="8" fill="white"/>
<rect x="195" y="38" width="1" height="8" fill="white"/>
<rect x="200" y="38" width="1" height="8" fill="white"/>
<rect x="205" y="38" width="1" height="8" fill="white"/>
<rect x="210" y="38" width="1" height="8" fill="white"/>
<rect x="215" y="38" width="1" height="8" fill="white"/>
<rect x="220" y="38" width="1" height="8" fill="white"/>
<rect x="225" y="38" width="1" height="8" fill="white"/>
<rect x="230" y="36" width="1" height="12" fill="white"/>
<rect opacity="0.25" x="235" y="38" width="1" height="8" fill="white"/>
<rect opacity="0.25" x="240" y="38" width="1" height="8" fill="white"/>
<rect opacity="0.25" x="245" y="38" width="1" height="8" fill="white"/>
<rect opacity="0.25" x="250" y="38" width="1" height="8" fill="white"/>
<rect opacity="0.25" x="255" y="38" width="1" height="8" fill="white"/>
<rect opacity="0.25" x="260" y="38" width="1" height="8" fill="white"/>
<rect opacity="0.25" x="265" y="38" width="1" height="8" fill="white"/>
<rect opacity="0.25" x="270" y="38" width="1" height="8" fill="white"/>
<rect opacity="0.25" x="275" y="38" width="1" height="8" fill="white"/>
<rect opacity="0.25" x="280" y="38" width="1" height="8" fill="white"/>
<rect opacity="0.25" x="285" y="38" width="1" height="8" fill="white"/>
<rect opacity="0.25" x="290" y="38" width="1" height="8" fill="white"/>
<rect opacity="0.25" x="295" y="38" width="1" height="8" fill="white"/>
<rect opacity="0.25" x="300" y="38" width="1" height="8" fill="white"/>
<rect opacity="0.25" x="305" y="38" width="1" height="8" fill="white"/>
<path opacity="0.75" d="M6.552 81L5.772 78.936H1.788L1.008 81H0.12L3.348 72.6H4.212L7.44 81H6.552ZM2.088 78.144H5.472L3.78 73.644L2.088 78.144ZM13.4414 75H14.2334V80.76C14.2334 81.624 13.9374 82.304 13.3454 82.8C12.7534 83.296 12.0454 83.544 11.2214 83.544C9.81341 83.544 8.86541 83.056 8.37741 82.08L9.07341 81.684C9.43341 82.412 10.1494 82.776 11.2214 82.776C11.9094 82.776 12.4494 82.592 12.8414 82.224C13.2414 81.864 13.4414 81.376 13.4414 80.76V79.824C12.8894 80.704 12.0814 81.144 11.0174 81.144C10.1614 81.144 9.42941 80.84 8.82141 80.232C8.22141 79.624 7.92141 78.88 7.92141 78C7.92141 77.12 8.22141 76.376 8.82141 75.768C9.42941 75.16 10.1614 74.856 11.0174 74.856C12.0814 74.856 12.8894 75.296 13.4414 76.176V75ZM9.39741 79.692C9.85341 80.148 10.4134 80.376 11.0774 80.376C11.7414 80.376 12.3014 80.148 12.7574 79.692C13.2134 79.228 13.4414 78.664 13.4414 78C13.4414 77.336 13.2134 76.776 12.7574 76.32C12.3014 75.856 11.7414 75.624 11.0774 75.624C10.4134 75.624 9.85341 75.856 9.39741 76.32C8.94141 76.776 8.71341 77.336 8.71341 78C8.71341 78.664 8.94141 79.228 9.39741 79.692ZM16.7143 73.56C16.6023 73.672 16.4663 73.728 16.3063 73.728C16.1463 73.728 16.0103 73.672 15.8983 73.56C15.7863 73.448 15.7303 73.312 15.7303 73.152C15.7303 72.992 15.7863 72.856 15.8983 72.744C16.0103 72.632 16.1463 72.576 16.3063 72.576C16.4663 72.576 16.6023 72.632 16.7143 72.744C16.8263 72.856 16.8823 72.992 16.8823 73.152C16.8823 73.312 16.8263 73.448 16.7143 73.56ZM15.9103 81V75H16.7023V81H15.9103ZM18.383 81V72.24H19.175V81H18.383ZM21.6596 73.56C21.5476 73.672 21.4116 73.728 21.2516 73.728C21.0916 73.728 20.9556 73.672 20.8436 73.56C20.7316 73.448 20.6756 73.312 20.6756 73.152C20.6756 72.992 20.7316 72.856 20.8436 72.744C20.9556 72.632 21.0916 72.576 21.2516 72.576C21.4116 72.576 21.5476 72.632 21.6596 72.744C21.7716 72.856 21.8276 72.992 21.8276 73.152C21.8276 73.312 21.7716 73.448 21.6596 73.56ZM20.8556 81V75H21.6476V81H20.8556ZM28.4883 72.6H29.2803V81H28.4883V79.824C27.9363 80.704 27.1283 81.144 26.0643 81.144C25.2083 81.144 24.4763 80.84 23.8683 80.232C23.2683 79.624 22.9683 78.88 22.9683 78C22.9683 77.12 23.2683 76.376 23.8683 75.768C24.4763 75.16 25.2083 74.856 26.0643 74.856C27.1283 74.856 27.9363 75.296 28.4883 76.176V72.6ZM24.4443 79.692C24.9003 80.148 25.4603 80.376 26.1243 80.376C26.7883 80.376 27.3483 80.148 27.8043 79.692C28.2603 79.228 28.4883 78.664 28.4883 78C28.4883 77.336 28.2603 76.776 27.8043 76.32C27.3483 75.856 26.7883 75.624 26.1243 75.624C25.4603 75.624 24.9003 75.856 24.4443 76.32C23.9883 76.776 23.7603 77.336 23.7603 78C23.7603 78.664 23.9883 79.228 24.4443 79.692ZM36.1172 75H36.9092V81H36.1172V79.824C35.5652 80.704 34.7572 81.144 33.6932 81.144C32.8372 81.144 32.1052 80.84 31.4972 80.232C30.8972 79.624 30.5972 78.88 30.5972 78C30.5972 77.12 30.8972 76.376 31.4972 75.768C32.1052 75.16 32.8372 74.856 33.6932 74.856C34.7572 74.856 35.5652 75.296 36.1172 76.176V75ZM32.0732 79.692C32.5292 80.148 33.0892 80.376 33.7532 80.376C34.4172 80.376 34.9772 80.148 35.4332 79.692C35.8892 79.228 36.1172 78.664 36.1172 78C36.1172 77.336 35.8892 76.776 35.4332 76.32C34.9772 75.856 34.4172 75.624 33.7532 75.624C33.0892 75.624 32.5292 75.856 32.0732 76.32C31.6172 76.776 31.3892 77.336 31.3892 78C31.3892 78.664 31.6172 79.228 32.0732 79.692ZM43.7461 72.6H44.5381V81H43.7461V79.824C43.1941 80.704 42.3861 81.144 41.3221 81.144C40.4661 81.144 39.7341 80.84 39.1261 80.232C38.5261 79.624 38.2261 78.88 38.2261 78C38.2261 77.12 38.5261 76.376 39.1261 75.768C39.7341 75.16 40.4661 74.856 41.3221 74.856C42.3861 74.856 43.1941 75.296 43.7461 76.176V72.6ZM39.7021 79.692C40.1581 80.148 40.7181 80.376 41.3821 80.376C42.0461 80.376 42.6061 80.148 43.0621 79.692C43.5181 79.228 43.7461 78.664 43.7461 78C43.7461 77.336 43.5181 76.776 43.0621 76.32C42.6061 75.856 42.0461 75.624 41.3821 75.624C40.7181 75.624 40.1581 75.856 39.7021 76.32C39.2461 76.776 39.0181 77.336 39.0181 78C39.0181 78.664 39.2461 79.228 39.7021 79.692ZM48.987 74.856C49.875 74.856 50.591 75.172 51.135 75.804C51.687 76.428 51.963 77.168 51.963 78.024C51.963 78.112 51.955 78.236 51.939 78.396H46.671C46.751 79.004 47.007 79.488 47.439 79.848C47.879 80.2 48.419 80.376 49.059 80.376C49.515 80.376 49.907 80.284 50.235 80.1C50.571 79.908 50.823 79.66 50.991 79.356L51.687 79.764C51.423 80.188 51.063 80.524 50.607 80.772C50.151 81.02 49.631 81.144 49.047 81.144C48.103 81.144 47.335 80.848 46.743 80.256C46.151 79.664 45.855 78.912 45.855 78C45.855 77.104 46.147 76.356 46.731 75.756C47.315 75.156 48.067 74.856 48.987 74.856ZM48.987 75.624C48.363 75.624 47.839 75.812 47.415 76.188C46.999 76.556 46.751 77.036 46.671 77.628H51.147C51.067 76.996 50.823 76.504 50.415 76.152C50.007 75.8 49.531 75.624 48.987 75.624Z" fill="white"/>
<rect x="90" y="74" width="1" height="8" fill="white"/>
<rect x="95" y="74" width="1" height="8" fill="white"/>
<rect x="100" y="74" width="1" height="8" fill="white"/>
<rect x="105" y="74" width="1" height="8" fill="white"/>
<rect x="110" y="74" width="1" height="8" fill="white"/>
<rect x="115" y="74" width="1" height="8" fill="white"/>
<rect x="120" y="74" width="1" height="8" fill="white"/>
<rect x="125" y="74" width="1" height="8" fill="white"/>
<rect x="130" y="74" width="1" height="8" fill="white"/>
<rect x="135" y="74" width="1" height="8" fill="white"/>
<rect x="140" y="74" width="1" height="8" fill="white"/>
<rect x="145" y="74" width="1" height="8" fill="white"/>
<rect x="150" y="74" width="1" height="8" fill="white"/>
<rect x="155" y="74" width="1" height="8" fill="white"/>
<rect x="160" y="74" width="1" height="8" fill="white"/>
<rect x="165" y="74" width="1" height="8" fill="white"/>
<rect x="170" y="74" width="1" height="8" fill="white"/>
<rect x="175" y="74" width="1" height="8" fill="white"/>
<rect x="180" y="74" width="1" height="8" fill="white"/>
<rect x="185" y="74" width="1" height="8" fill="white"/>
<rect x="190" y="74" width="1" height="8" fill="white"/>
<rect x="195" y="74" width="1" height="8" fill="white"/>
<rect x="200" y="74" width="1" height="8" fill="white"/>
<rect x="205" y="74" width="1" height="8" fill="white"/>
<rect x="210" y="74" width="1" height="8" fill="white"/>
<rect x="215" y="74" width="1" height="8" fill="white"/>
<rect x="220" y="74" width="1" height="8" fill="white"/>
<rect x="225" y="74" width="1" height="8" fill="white"/>
<rect x="230" y="74" width="1" height="8" fill="white"/>
<rect x="235" y="74" width="1" height="8" fill="white"/>
<rect x="240" y="74" width="1" height="8" fill="white"/>
<rect x="245" y="74" width="1" height="8" fill="white"/>
<rect x="250" y="74" width="1" height="8" fill="white"/>
<rect x="255" y="74" width="1" height="8" fill="white"/>
<rect x="260" y="74" width="1" height="8" fill="white"/>
<rect x="265" y="74" width="1" height="8" fill="white"/>
<rect x="270" y="74" width="1" height="8" fill="white"/>
<rect x="275" y="74" width="1" height="8" fill="white"/>
<rect x="280" y="74" width="1" height="8" fill="white"/>
<rect x="285" y="74" width="1" height="8" fill="white"/>
<rect x="290" y="72" width="1" height="12" fill="white"/>
<rect opacity="0.25" x="295" y="74" width="1" height="8" fill="white"/>
<rect opacity="0.25" x="300" y="74" width="1" height="8" fill="white"/>
<rect opacity="0.25" x="305" y="74" width="1" height="8" fill="white"/>
<path opacity="0.75" d="M6.12 117L4.152 113.64H1.8V117H0.96V108.6H4.32C5.016 108.6 5.608 108.848 6.096 109.344C6.592 109.832 6.84 110.424 6.84 111.12C6.84 111.688 6.668 112.196 6.324 112.644C5.988 113.084 5.556 113.38 5.028 113.532L7.08 117H6.12ZM1.8 109.392V112.848H4.32C4.784 112.848 5.18 112.68 5.508 112.344C5.836 112 6 111.592 6 111.12C6 110.64 5.836 110.232 5.508 109.896C5.18 109.56 4.784 109.392 4.32 109.392H1.8ZM10.6315 110.856C11.5195 110.856 12.2355 111.172 12.7795 111.804C13.3315 112.428 13.6075 113.168 13.6075 114.024C13.6075 114.112 13.5995 114.236 13.5835 114.396H8.31553C8.39553 115.004 8.65153 115.488 9.08353 115.848C9.52353 116.2 10.0635 116.376 10.7035 116.376C11.1595 116.376 11.5515 116.284 11.8795 116.1C12.2155 115.908 12.4675 115.66 12.6355 115.356L13.3315 115.764C13.0675 116.188 12.7075 116.524 12.2515 116.772C11.7955 117.02 11.2755 117.144 10.6915 117.144C9.74753 117.144 8.97953 116.848 8.38753 116.256C7.79553 115.664 7.49953 114.912 7.49953 114C7.49953 113.104 7.79153 112.356 8.37553 111.756C8.95953 111.156 9.71153 110.856 10.6315 110.856ZM10.6315 111.624C10.0075 111.624 9.48353 111.812 9.05953 112.188C8.64353 112.556 8.39553 113.036 8.31553 113.628H12.7915C12.7115 112.996 12.4675 112.504 12.0595 112.152C11.6515 111.8 11.1755 111.624 10.6315 111.624ZM15.257 112.572C15.257 112.844 15.377 113.06 15.617 113.22C15.857 113.38 16.149 113.504 16.493 113.592C16.837 113.68 17.181 113.78 17.525 113.892C17.869 113.996 18.161 114.176 18.401 114.432C18.641 114.68 18.761 115.008 18.761 115.416C18.761 115.928 18.557 116.344 18.149 116.664C17.749 116.984 17.229 117.144 16.589 117.144C16.013 117.144 15.521 117.016 15.113 116.76C14.713 116.504 14.433 116.172 14.273 115.764L14.945 115.368C15.057 115.68 15.257 115.928 15.545 116.112C15.841 116.288 16.189 116.376 16.589 116.376C16.981 116.376 17.309 116.3 17.573 116.148C17.837 115.988 17.969 115.744 17.969 115.416C17.969 115.144 17.849 114.928 17.609 114.768C17.369 114.608 17.077 114.484 16.733 114.396C16.389 114.308 16.045 114.212 15.701 114.108C15.357 113.996 15.065 113.816 14.825 113.568C14.585 113.312 14.465 112.98 14.465 112.572C14.465 112.084 14.657 111.676 15.041 111.348C15.433 111.02 15.925 110.856 16.517 110.856C17.005 110.856 17.433 110.968 17.801 111.192C18.169 111.408 18.441 111.704 18.617 112.08L17.957 112.464C17.725 111.904 17.245 111.624 16.517 111.624C16.173 111.624 15.877 111.708 15.629 111.876C15.381 112.036 15.257 112.268 15.257 112.572ZM20.8276 109.56C20.7156 109.672 20.5796 109.728 20.4196 109.728C20.2596 109.728 20.1236 109.672 20.0116 109.56C19.8996 109.448 19.8436 109.312 19.8436 109.152C19.8436 108.992 19.8996 108.856 20.0116 108.744C20.1236 108.632 20.2596 108.576 20.4196 108.576C20.5796 108.576 20.7156 108.632 20.8276 108.744C20.9396 108.856 20.9956 108.992 20.9956 109.152C20.9956 109.312 20.9396 109.448 20.8276 109.56ZM20.0236 117V111H20.8156V117H20.0236ZM23.1203 112.572C23.1203 112.844 23.2403 113.06 23.4803 113.22C23.7203 113.38 24.0123 113.504 24.3563 113.592C24.7003 113.68 25.0443 113.78 25.3883 113.892C25.7323 113.996 26.0243 114.176 26.2643 114.432C26.5043 114.68 26.6243 115.008 26.6243 115.416C26.6243 115.928 26.4203 116.344 26.0123 116.664C25.6123 116.984 25.0923 117.144 24.4523 117.144C23.8763 117.144 23.3843 117.016 22.9763 116.76C22.5763 116.504 22.2963 116.172 22.1363 115.764L22.8083 115.368C22.9203 115.68 23.1203 115.928 23.4083 116.112C23.7043 116.288 24.0523 116.376 24.4523 116.376C24.8443 116.376 25.1723 116.3 25.4363 116.148C25.7003 115.988 25.8323 115.744 25.8323 115.416C25.8323 115.144 25.7123 114.928 25.4723 114.768C25.2323 114.608 24.9403 114.484 24.5963 114.396C24.2523 114.308 23.9083 114.212 23.5643 114.108C23.2203 113.996 22.9283 113.816 22.6883 113.568C22.4483 113.312 22.3283 112.98 22.3283 112.572C22.3283 112.084 22.5203 111.676 22.9043 111.348C23.2963 111.02 23.7883 110.856 24.3803 110.856C24.8683 110.856 25.2963 110.968 25.6643 111.192C26.0323 111.408 26.3043 111.704 26.4803 112.08L25.8203 112.464C25.5883 111.904 25.1083 111.624 24.3803 111.624C24.0363 111.624 23.7403 111.708 23.4923 111.876C23.2443 112.036 23.1203 112.268 23.1203 112.572ZM30.8911 111.768H29.1631V115.404C29.1631 115.732 29.2271 115.968 29.3551 116.112C29.4831 116.248 29.6751 116.32 29.9311 116.328C30.1871 116.328 30.5071 116.32 30.8911 116.304V117C30.0511 117.128 29.4191 117.068 28.9951 116.82C28.5791 116.572 28.3711 116.1 28.3711 115.404V111.768H27.1111V111H28.3711V109.56L29.1631 109.32V111H30.8911V111.768ZM34.5478 109.116L33.7078 110.16H32.8078L34.0798 108.6H35.0158L36.2878 110.16H35.3878L34.5478 109.116ZM34.6198 110.856C35.5078 110.856 36.2238 111.172 36.7678 111.804C37.3198 112.428 37.5958 113.168 37.5958 114.024C37.5958 114.112 37.5878 114.236 37.5718 114.396H32.3038C32.3838 115.004 32.6398 115.488 33.0718 115.848C33.5118 116.2 34.0518 116.376 34.6918 116.376C35.1478 116.376 35.5398 116.284 35.8678 116.1C36.2038 115.908 36.4558 115.66 36.6238 115.356L37.3198 115.764C37.0558 116.188 36.6958 116.524 36.2398 116.772C35.7838 117.02 35.2638 117.144 34.6798 117.144C33.7358 117.144 32.9678 116.848 32.3758 116.256C31.7838 115.664 31.4878 114.912 31.4878 114C31.4878 113.104 31.7798 112.356 32.3638 111.756C32.9478 111.156 33.6998 110.856 34.6198 110.856ZM34.6198 111.624C33.9958 111.624 33.4718 111.812 33.0478 112.188C32.6318 112.556 32.3838 113.036 32.3038 113.628H36.7798C36.6998 112.996 36.4558 112.504 36.0478 112.152C35.6398 111.8 35.1638 111.624 34.6198 111.624ZM41.6636 110.856C42.3916 110.856 42.9636 111.08 43.3796 111.528C43.8036 111.968 44.0156 112.564 44.0156 113.316V117H43.2236V113.316C43.2236 112.78 43.0796 112.364 42.7916 112.068C42.5116 111.772 42.1116 111.624 41.5916 111.624C41.0156 111.624 40.5476 111.808 40.1876 112.176C39.8276 112.536 39.6476 113.096 39.6476 113.856V117H38.8556V111H39.6476V111.936C40.0956 111.216 40.7676 110.856 41.6636 110.856ZM48.343 117.144C47.439 117.144 46.687 116.844 46.087 116.244C45.487 115.636 45.187 114.888 45.187 114C45.187 113.112 45.487 112.368 46.087 111.768C46.687 111.16 47.439 110.856 48.343 110.856C48.935 110.856 49.467 111 49.939 111.288C50.411 111.568 50.755 111.948 50.971 112.428L50.323 112.8C50.163 112.44 49.903 112.156 49.543 111.948C49.191 111.732 48.791 111.624 48.343 111.624C47.679 111.624 47.119 111.856 46.663 112.32C46.207 112.776 45.979 113.336 45.979 114C45.979 114.664 46.207 115.228 46.663 115.692C47.119 116.148 47.679 116.376 48.343 116.376C48.791 116.376 49.191 116.272 49.543 116.064C49.895 115.848 50.171 115.56 50.371 115.2L51.031 115.584C50.783 116.064 50.419 116.444 49.939 116.724C49.459 117.004 48.927 117.144 48.343 117.144ZM52.9721 109.56C52.8601 109.672 52.7241 109.728 52.5641 109.728C52.4041 109.728 52.2681 109.672 52.1561 109.56C52.0441 109.448 51.9881 109.312 51.9881 109.152C51.9881 108.992 52.0441 108.856 52.1561 108.744C52.2681 108.632 52.4041 108.576 52.5641 108.576C52.7241 108.576 52.8601 108.632 52.9721 108.744C53.0841 108.856 53.1401 108.992 53.1401 109.152C53.1401 109.312 53.0841 109.448 52.9721 109.56ZM52.1681 117V111H52.9601V117H52.1681ZM59.8008 111H60.5928V117H59.8008V115.824C59.2488 116.704 58.4408 117.144 57.3768 117.144C56.5208 117.144 55.7888 116.84 55.1808 116.232C54.5808 115.624 54.2808 114.88 54.2808 114C54.2808 113.12 54.5808 112.376 55.1808 111.768C55.7888 111.16 56.5208 110.856 57.3768 110.856C58.4408 110.856 59.2488 111.296 59.8008 112.176V111ZM55.7568 115.692C56.2128 116.148 56.7728 116.376 57.4368 116.376C58.1008 116.376 58.6608 116.148 59.1168 115.692C59.5728 115.228 59.8008 114.664 59.8008 114C59.8008 113.336 59.5728 112.776 59.1168 112.32C58.6608 111.856 58.1008 111.624 57.4368 111.624C56.7728 111.624 56.2128 111.856 55.7568 112.32C55.3008 112.776 55.0728 113.336 55.0728 114C55.0728 114.664 55.3008 115.228 55.7568 115.692Z" fill="white"/>
<rect x="90" y="110" width="1" height="8" fill="white"/>
<rect x="95" y="110" width="1" height="8" fill="white"/>
<rect x="100" y="110" width="1" height="8" fill="white"/>
<rect x="105" y="110" width="1" height="8" fill="white"/>
<rect x="110" y="110" width="1" height="8" fill="white"/>
<rect x="115" y="110" width="1" height="8" fill="white"/>
<rect x="120" y="110" width="1" height="8" fill="white"/>
<rect x="125" y="110" width="1" height="8" fill="white"/>
<rect x="130" y="110" width="1" height="8" fill="white"/>
<rect x="135" y="110" width="1" height="8" fill="white"/>
<rect x="140" y="110" width="1" height="8" fill="white"/>
<rect x="145" y="110" width="1" height="8" fill="white"/>
<rect x="150" y="110" width="1" height="8" fill="white"/>
<rect x="155" y="110" width="1" height="8" fill="white"/>
<rect x="160" y="110" width="1" height="8" fill="white"/>
<rect x="165" y="110" width="1" height="8" fill="white"/>
<rect x="170" y="110" width="1" height="8" fill="white"/>
<rect x="175" y="110" width="1" height="8" fill="white"/>
<rect x="180" y="110" width="1" height="8" fill="white"/>
<rect x="185" y="110" width="1" height="8" fill="white"/>
<rect x="190" y="110" width="1" height="8" fill="white"/>
<rect x="195" y="110" width="1" height="8" fill="white"/>
<rect x="200" y="110" width="1" height="8" fill="white"/>
<rect x="205" y="110" width="1" height="8" fill="white"/>
<rect x="210" y="110" width="1" height="8" fill="white"/>
<rect x="215" y="110" width="1" height="8" fill="white"/>
<rect x="220" y="108" width="1" height="12" fill="white"/>
<rect opacity="0.25" x="225" y="110" width="1" height="8" fill="white"/>
<rect opacity="0.25" x="230" y="110" width="1" height="8" fill="white"/>
<rect opacity="0.25" x="235" y="110" width="1" height="8" fill="white"/>
<rect opacity="0.25" x="240" y="110" width="1" height="8" fill="white"/>
<rect opacity="0.25" x="245" y="110" width="1" height="8" fill="white"/>
<rect opacity="0.25" x="250" y="110" width="1" height="8" fill="white"/>
<rect opacity="0.25" x="255" y="110" width="1" height="8" fill="white"/>
<rect opacity="0.25" x="260" y="110" width="1" height="8" fill="white"/>
<rect opacity="0.25" x="265" y="110" width="1" height="8" fill="white"/>
<rect opacity="0.25" x="270" y="110" width="1" height="8" fill="white"/>
<rect opacity="0.25" x="275" y="110" width="1" height="8" fill="white"/>
<rect opacity="0.25" x="280" y="110" width="1" height="8" fill="white"/>
<rect opacity="0.25" x="285" y="110" width="1" height="8" fill="white"/>
<rect opacity="0.25" x="290" y="110" width="1" height="8" fill="white"/>
<rect opacity="0.25" x="295" y="110" width="1" height="8" fill="white"/>
<rect opacity="0.25" x="300" y="110" width="1" height="8" fill="white"/>
<rect opacity="0.25" x="305" y="110" width="1" height="8" fill="white"/>
<path opacity="0.75" d="M3.216 153L0.12 144.6H1.032L3.648 151.884L6.264 144.6H7.176L4.08 153H3.216ZM10.1979 146.856C11.0859 146.856 11.8019 147.172 12.3459 147.804C12.8979 148.428 13.1739 149.168 13.1739 150.024C13.1739 150.112 13.1659 150.236 13.1499 150.396H7.88194C7.96194 151.004 8.21794 151.488 8.64994 151.848C9.08994 152.2 9.62994 152.376 10.2699 152.376C10.7259 152.376 11.1179 152.284 11.4459 152.1C11.7819 151.908 12.0339 151.66 12.2019 151.356L12.8979 151.764C12.6339 152.188 12.2739 152.524 11.8179 152.772C11.3619 153.02 10.8419 153.144 10.2579 153.144C9.31394 153.144 8.54594 152.848 7.95394 152.256C7.36194 151.664 7.06594 150.912 7.06594 150C7.06594 149.104 7.35794 148.356 7.94194 147.756C8.52594 147.156 9.27794 146.856 10.1979 146.856ZM10.1979 147.624C9.57394 147.624 9.04994 147.812 8.62594 148.188C8.20994 148.556 7.96194 149.036 7.88194 149.628H12.3579C12.2779 148.996 12.0339 148.504 11.6259 148.152C11.2179 147.8 10.7419 147.624 10.1979 147.624ZM14.4338 153V144.24H15.2258V153H14.4338ZM21.9344 152.244C21.3264 152.844 20.5824 153.144 19.7024 153.144C18.8224 153.144 18.0744 152.844 17.4584 152.244C16.8504 151.636 16.5464 150.888 16.5464 150C16.5464 149.112 16.8504 148.368 17.4584 147.768C18.0744 147.16 18.8224 146.856 19.7024 146.856C20.5824 146.856 21.3264 147.16 21.9344 147.768C22.5504 148.368 22.8584 149.112 22.8584 150C22.8584 150.888 22.5504 151.636 21.9344 152.244ZM18.0224 151.692C18.4784 152.148 19.0384 152.376 19.7024 152.376C20.3664 152.376 20.9264 152.148 21.3824 151.692C21.8384 151.228 22.0664 150.664 22.0664 150C22.0664 149.336 21.8384 148.776 21.3824 148.32C20.9264 147.856 20.3664 147.624 19.7024 147.624C19.0384 147.624 18.4784 147.856 18.0224 148.32C17.5664 148.776 17.3384 149.336 17.3384 150C17.3384 150.664 17.5664 151.228 18.0224 151.692ZM26.9798 153.144C26.0758 153.144 25.3238 152.844 24.7238 152.244C24.1238 151.636 23.8238 150.888 23.8238 150C23.8238 149.112 24.1238 148.368 24.7238 147.768C25.3238 147.16 26.0758 146.856 26.9798 146.856C27.5718 146.856 28.1038 147 28.5758 147.288C29.0478 147.568 29.3918 147.948 29.6078 148.428L28.9598 148.8C28.7998 148.44 28.5398 148.156 28.1798 147.948C27.8278 147.732 27.4278 147.624 26.9798 147.624C26.3158 147.624 25.7558 147.856 25.2998 148.32C24.8438 148.776 24.6158 149.336 24.6158 150C24.6158 150.664 24.8438 151.228 25.2998 151.692C25.7558 152.148 26.3158 152.376 26.9798 152.376C27.4278 152.376 27.8278 152.272 28.1798 152.064C28.5318 151.848 28.8078 151.56 29.0078 151.2L29.6678 151.584C29.4198 152.064 29.0558 152.444 28.5758 152.724C28.0958 153.004 27.5638 153.144 26.9798 153.144ZM31.6088 145.56C31.4968 145.672 31.3608 145.728 31.2008 145.728C31.0408 145.728 30.9048 145.672 30.7928 145.56C30.6808 145.448 30.6248 145.312 30.6248 145.152C30.6248 144.992 30.6808 144.856 30.7928 144.744C30.9048 144.632 31.0408 144.576 31.2008 144.576C31.3608 144.576 31.4968 144.632 31.6088 144.744C31.7208 144.856 31.7768 144.992 31.7768 145.152C31.7768 145.312 31.7208 145.448 31.6088 145.56ZM30.8048 153V147H31.5968V153H30.8048ZM38.4375 144.6H39.2295V153H38.4375V151.824C37.8855 152.704 37.0775 153.144 36.0135 153.144C35.1575 153.144 34.4255 152.84 33.8175 152.232C33.2175 151.624 32.9175 150.88 32.9175 150C32.9175 149.12 33.2175 148.376 33.8175 147.768C34.4255 147.16 35.1575 146.856 36.0135 146.856C37.0775 146.856 37.8855 147.296 38.4375 148.176V144.6ZM34.3935 151.692C34.8495 152.148 35.4095 152.376 36.0735 152.376C36.7375 152.376 37.2975 152.148 37.7535 151.692C38.2095 151.228 38.4375 150.664 38.4375 150C38.4375 149.336 38.2095 148.776 37.7535 148.32C37.2975 147.856 36.7375 147.624 36.0735 147.624C35.4095 147.624 34.8495 147.856 34.3935 148.32C33.9375 148.776 33.7095 149.336 33.7095 150C33.7095 150.664 33.9375 151.228 34.3935 151.692ZM46.0664 147H46.8584V153H46.0664V151.824C45.5144 152.704 44.7064 153.144 43.6424 153.144C42.7864 153.144 42.0544 152.84 41.4464 152.232C40.8464 151.624 40.5464 150.88 40.5464 150C40.5464 149.12 40.8464 148.376 41.4464 147.768C42.0544 147.16 42.7864 146.856 43.6424 146.856C44.7064 146.856 45.5144 147.296 46.0664 148.176V147ZM42.0224 151.692C42.4784 152.148 43.0384 152.376 43.7024 152.376C44.3664 152.376 44.9264 152.148 45.3824 151.692C45.8384 151.228 46.0664 150.664 46.0664 150C46.0664 149.336 45.8384 148.776 45.3824 148.32C44.9264 147.856 44.3664 147.624 43.7024 147.624C43.0384 147.624 42.4784 147.856 42.0224 148.32C41.5664 148.776 41.3384 149.336 41.3384 150C41.3384 150.664 41.5664 151.228 42.0224 151.692ZM53.6953 144.6H54.4873V153H53.6953V151.824C53.1433 152.704 52.3353 153.144 51.2713 153.144C50.4153 153.144 49.6833 152.84 49.0753 152.232C48.4753 151.624 48.1753 150.88 48.1753 150C48.1753 149.12 48.4753 148.376 49.0753 147.768C49.6833 147.16 50.4153 146.856 51.2713 146.856C52.3353 146.856 53.1433 147.296 53.6953 148.176V144.6ZM49.6513 151.692C50.1073 152.148 50.6673 152.376 51.3313 152.376C51.9953 152.376 52.5553 152.148 53.0113 151.692C53.4673 151.228 53.6953 150.664 53.6953 150C53.6953 149.336 53.4673 148.776 53.0113 148.32C52.5553 147.856 51.9953 147.624 51.3313 147.624C50.6673 147.624 50.1073 147.856 49.6513 148.32C49.1953 148.776 48.9673 149.336 48.9673 150C48.9673 150.664 49.1953 151.228 49.6513 151.692ZM58.9362 146.856C59.8242 146.856 60.5402 147.172 61.0842 147.804C61.6362 148.428 61.9122 149.168 61.9122 150.024C61.9122 150.112 61.9042 150.236 61.8882 150.396H56.6202C56.7002 151.004 56.9562 151.488 57.3882 151.848C57.8282 152.2 58.3682 152.376 59.0082 152.376C59.4642 152.376 59.8562 152.284 60.1842 152.1C60.5202 151.908 60.7722 151.66 60.9402 151.356L61.6362 151.764C61.3722 152.188 61.0122 152.524 60.5562 152.772C60.1002 153.02 59.5802 153.144 58.9962 153.144C58.0522 153.144 57.2842 152.848 56.6922 152.256C56.1002 151.664 55.8042 150.912 55.8042 150C55.8042 149.104 56.0962 148.356 56.6802 147.756C57.2642 147.156 58.0162 146.856 58.9362 146.856ZM58.9362 147.624C58.3122 147.624 57.7882 147.812 57.3642 148.188C56.9482 148.556 56.7002 149.036 56.6202 149.628H61.0962C61.0162 148.996 60.7722 148.504 60.3642 148.152C59.9562 147.8 59.4802 147.624 58.9362 147.624Z" fill="white"/>
<rect x="90" y="146" width="1" height="8" fill="white"/>
<rect x="95" y="146" width="1" height="8" fill="white"/>
<rect x="100" y="146" width="1" height="8" fill="white"/>
<rect x="105" y="146" width="1" height="8" fill="white"/>
<rect x="110" y="146" width="1" height="8" fill="white"/>
<rect x="115" y="146" width="1" height="8" fill="white"/>
<rect x="120" y="146" width="1" height="8" fill="white"/>
<rect x="125" y="146" width="1" height="8" fill="white"/>
<rect x="130" y="146" width="1" height="8" fill="white"/>
<rect x="135" y="146" width="1" height="8" fill="white"/>
<rect x="140" y="146" width="1" height="8" fill="white"/>
<rect x="145" y="146" width="1" height="8" fill="white"/>
<rect x="150" y="146" width="1" height="8" fill="white"/>
<rect x="155" y="146" width="1" height="8" fill="white"/>
<rect x="160" y="146" width="1" height="8" fill="white"/>
<rect x="165" y="146" width="1" height="8" fill="white"/>
<rect x="170" y="146" width="1" height="8" fill="white"/>
<rect x="175" y="146" width="1" height="8" fill="white"/>
<rect x="180" y="146" width="1" height="8" fill="white"/>
<rect x="185" y="146" width="1" height="8" fill="white"/>
<rect x="190" y="146" width="1" height="8" fill="white"/>
<rect x="195" y="146" width="1" height="8" fill="white"/>
<rect x="200" y="146" width="1" height="8" fill="white"/>
<rect x="205" y="146" width="1" height="8" fill="white"/>
<rect x="210" y="146" width="1" height="8" fill="white"/>
<rect x="215" y="146" width="1" height="8" fill="white"/>
<rect x="220" y="146" width="1" height="8" fill="white"/>
<rect x="225" y="146" width="1" height="8" fill="white"/>
<rect x="230" y="146" width="1" height="8" fill="white"/>
<rect x="235" y="146" width="1" height="8" fill="white"/>
<rect x="240" y="146" width="1" height="8" fill="white"/>
<rect x="245" y="146" width="1" height="8" fill="white"/>
<rect x="250" y="146" width="1" height="8" fill="white"/>
<rect x="255" y="146" width="1" height="8" fill="white"/>
<rect x="260" y="144" width="1" height="12" fill="white"/>
<rect opacity="0.25" x="265" y="146" width="1" height="8" fill="white"/>
<rect opacity="0.25" x="270" y="146" width="1" height="8" fill="white"/>
<rect opacity="0.25" x="275" y="146" width="1" height="8" fill="white"/>
<rect opacity="0.25" x="280" y="146" width="1" height="8" fill="white"/>
<rect opacity="0.25" x="285" y="146" width="1" height="8" fill="white"/>
<rect opacity="0.25" x="290" y="146" width="1" height="8" fill="white"/>
<rect opacity="0.25" x="295" y="146" width="1" height="8" fill="white"/>
<rect opacity="0.25" x="300" y="146" width="1" height="8" fill="white"/>
<rect opacity="0.25" x="305" y="146" width="1" height="8" fill="white"/>
</svg>
