<svg width="216" height="12" viewBox="0 0 216 12" fill="none" xmlns="http://www.w3.org/2000/svg">
<rect y="2" width="1" height="8" fill="white"/>
<rect x="5" y="2" width="1" height="8" fill="white"/>
<rect x="10" y="2" width="1" height="8" fill="white"/>
<rect x="15" y="2" width="1" height="8" fill="white"/>
<rect x="20" y="2" width="1" height="8" fill="white"/>
<rect x="25" y="2" width="1" height="8" fill="white"/>
<rect x="30" y="2" width="1" height="8" fill="white"/>
<rect x="35" y="2" width="1" height="8" fill="white"/>
<rect x="40" y="2" width="1" height="8" fill="white"/>
<rect x="45" y="2" width="1" height="8" fill="white"/>
<rect x="50" y="2" width="1" height="8" fill="white"/>
<rect x="55" y="2" width="1" height="8" fill="white"/>
<rect x="60" y="2" width="1" height="8" fill="white"/>
<rect x="65" y="2" width="1" height="8" fill="white"/>
<rect x="70" y="2" width="1" height="8" fill="white"/>
<rect x="75" y="2" width="1" height="8" fill="white"/>
<rect x="80" y="2" width="1" height="8" fill="white"/>
<rect x="85" y="2" width="1" height="8" fill="white"/>
<rect x="90" y="2" width="1" height="8" fill="white"/>
<rect x="95" y="2" width="1" height="8" fill="white"/>
<rect x="100" y="2" width="1" height="8" fill="white"/>
<rect x="105" y="2" width="1" height="8" fill="white"/>
<rect x="110" y="2" width="1" height="8" fill="white"/>
<rect x="115" y="2" width="1" height="8" fill="white"/>
<rect x="120" y="2" width="1" height="8" fill="white"/>
<rect x="125" y="2" width="1" height="8" fill="white"/>
<rect x="130" y="2" width="1" height="8" fill="white"/>
<rect x="135" y="2" width="1" height="8" fill="white"/>
<rect x="140" y="2" width="1" height="8" fill="white"/>
<rect x="145" y="2" width="1" height="8" fill="white"/>
<rect x="150" y="2" width="1" height="8" fill="white"/>
<rect x="155" width="1" height="12" fill="white"/>
<rect opacity="0.25" x="160" y="2" width="1" height="8" fill="white"/>
<rect opacity="0.25" x="165" y="2" width="1" height="8" fill="white"/>
<rect opacity="0.25" x="170" y="2" width="1" height="8" fill="white"/>
<rect opacity="0.25" x="175" y="2" width="1" height="8" fill="white"/>
<rect opacity="0.25" x="180" y="2" width="1" height="8" fill="white"/>
<rect opacity="0.25" x="185" y="2" width="1" height="8" fill="white"/>
<rect opacity="0.25" x="190" y="2" width="1" height="8" fill="white"/>
<rect opacity="0.25" x="195" y="2" width="1" height="8" fill="white"/>
<rect opacity="0.25" x="200" y="2" width="1" height="8" fill="white"/>
<rect opacity="0.25" x="205" y="2" width="1" height="8" fill="white"/>
<rect opacity="0.25" x="210" y="2" width="1" height="8" fill="white"/>
<rect opacity="0.25" x="215" y="2" width="1" height="8" fill="white"/>
</svg>
