<svg width="60" height="48" viewBox="0 0 60 48" fill="none" xmlns="http://www.w3.org/2000/svg">
<g opacity="0.6">
<path d="M34.5653 18.0869H32.6088V8.30405C32.6088 7.94385 32.3168 7.65186 31.9566 7.65186H30.6522V7.10491C31.8044 6.69623 32.3051 5.34189 31.6957 4.2849C31.6956 4.28482 31.6956 4.28474 31.6956 4.28462L30.5648 2.32571C30.3139 1.89106 29.6856 1.8918 29.4352 2.32571L28.3045 4.28466C27.6937 5.34322 28.1977 6.69698 29.3478 7.10487V7.65182H28.0434C27.6832 7.65182 27.3912 7.94382 27.3912 8.30401C27.3912 9.38288 26.5135 10.2606 25.4347 10.2606C25.0745 10.2606 24.7825 10.5526 24.7825 10.9128V13.5215C24.7825 13.8817 25.0745 14.1737 25.4347 14.1737H27.3912V18.0869H25.4347C25.0745 18.0869 24.7825 18.3789 24.7825 18.7391V21.3478C24.7825 21.708 25.0745 22 25.4347 22H34.5653C34.9255 22 35.2175 21.708 35.2175 21.3478V18.7391C35.2175 18.3789 34.9255 18.0869 34.5653 18.0869ZM29.4342 4.93662L30 3.95638L30.5656 4.93634C30.8143 5.36783 30.5013 5.91268 30 5.91268C29.4982 5.91268 29.1858 5.36717 29.4342 4.93662ZM33.9131 20.6957H26.0869V19.3913H28.0434C28.4036 19.3913 28.6956 19.0993 28.6956 18.7391V13.5216C28.6956 13.1614 28.4036 12.8694 28.0434 12.8694H26.0869V11.4995C27.3627 11.2395 28.3701 10.232 28.6301 8.95624H31.3044V18.7391C31.3044 19.0993 31.5964 19.3913 31.9566 19.3913H33.9131V20.6957Z" fill="white"/>
</g>
<path d="M11.8252 40.044C12.4652 40.164 12.9892 40.44 13.3972 40.872C13.8052 41.304 14.0092 41.852 14.0092 42.516C14.0092 43.332 13.7292 43.976 13.1692 44.448C12.6092 44.92 11.9292 45.156 11.1292 45.156C10.4892 45.156 9.9212 45.012 9.4252 44.724C8.9292 44.428 8.5772 44.004 8.3692 43.452L9.3052 42.9C9.5532 43.676 10.1612 44.064 11.1292 44.064C11.6492 44.064 12.0732 43.928 12.4012 43.656C12.7292 43.384 12.8932 43.004 12.8932 42.516C12.8932 42.028 12.7292 41.648 12.4012 41.376C12.0732 41.096 11.6492 40.956 11.1292 40.956H10.8412L10.3972 40.272L12.3412 37.644H8.6092V36.6H13.6492V37.584L11.8252 40.044ZM20.6231 43.968C20.0551 44.76 19.2591 45.156 18.2351 45.156C17.2111 45.156 16.4151 44.76 15.8471 43.968C15.2791 43.176 14.9951 42.12 14.9951 40.8C14.9951 39.48 15.2791 38.424 15.8471 37.632C16.4151 36.84 17.2111 36.444 18.2351 36.444C19.2591 36.444 20.0551 36.84 20.6231 37.632C21.1911 38.424 21.4751 39.48 21.4751 40.8C21.4751 42.12 21.1911 43.176 20.6231 43.968ZM16.6631 43.212C17.0311 43.78 17.5551 44.064 18.2351 44.064C18.9151 44.064 19.4391 43.78 19.8071 43.212C20.1831 42.644 20.3711 41.84 20.3711 40.8C20.3711 39.76 20.1831 38.956 19.8071 38.388C19.4391 37.812 18.9151 37.524 18.2351 37.524C17.5551 37.524 17.0311 37.808 16.6631 38.376C16.2951 38.944 16.1111 39.752 16.1111 40.8C16.1111 41.84 16.2951 42.644 16.6631 43.212ZM30.7737 39H31.8177V45H30.7737V43.968C30.2537 44.76 29.4977 45.156 28.5057 45.156C27.6657 45.156 26.9497 44.852 26.3577 44.244C25.7657 43.628 25.4697 42.88 25.4697 42C25.4697 41.12 25.7657 40.376 26.3577 39.768C26.9497 39.152 27.6657 38.844 28.5057 38.844C29.4977 38.844 30.2537 39.24 30.7737 40.032V39ZM28.6377 44.148C29.2457 44.148 29.7537 43.944 30.1617 43.536C30.5697 43.12 30.7737 42.608 30.7737 42C30.7737 41.392 30.5697 40.884 30.1617 40.476C29.7537 40.06 29.2457 39.852 28.6377 39.852C28.0377 39.852 27.5337 40.06 27.1257 40.476C26.7177 40.884 26.5137 41.392 26.5137 42C26.5137 42.608 26.7177 43.12 27.1257 43.536C27.5337 43.944 28.0377 44.148 28.6377 44.148ZM36.3874 38.844C37.0914 38.844 37.6554 39.068 38.0794 39.516C38.5034 39.956 38.7154 40.556 38.7154 41.316V45H37.6714V41.376C37.6714 40.888 37.5394 40.512 37.2754 40.248C37.0114 39.976 36.6474 39.84 36.1834 39.84C35.6634 39.84 35.2434 40.004 34.9234 40.332C34.6034 40.652 34.4434 41.148 34.4434 41.82V45H33.3994V39H34.4434V39.864C34.8674 39.184 35.5154 38.844 36.3874 38.844ZM45.2369 44.244C44.6209 44.852 43.8729 45.156 42.9929 45.156C42.1129 45.156 41.3649 44.852 40.7489 44.244C40.1409 43.636 39.8369 42.888 39.8369 42C39.8369 41.112 40.1409 40.364 40.7489 39.756C41.3649 39.148 42.1129 38.844 42.9929 38.844C43.8729 38.844 44.6209 39.148 45.2369 39.756C45.8529 40.364 46.1609 41.112 46.1609 42C46.1609 42.888 45.8529 43.636 45.2369 44.244ZM42.9929 44.136C43.5929 44.136 44.0969 43.932 44.5049 43.524C44.9129 43.116 45.1169 42.608 45.1169 42C45.1169 41.392 44.9129 40.884 44.5049 40.476C44.0969 40.068 43.5929 39.864 42.9929 39.864C42.4009 39.864 41.9009 40.068 41.4929 40.476C41.0849 40.884 40.8809 41.392 40.8809 42C40.8809 42.608 41.0849 43.116 41.4929 43.524C41.9009 43.932 42.4009 44.136 42.9929 44.136ZM48.1627 40.62C48.1627 40.852 48.2787 41.04 48.5107 41.184C48.7427 41.32 49.0227 41.432 49.3507 41.52C49.6787 41.6 50.0067 41.696 50.3347 41.808C50.6627 41.912 50.9427 42.096 51.1747 42.36C51.4067 42.616 51.5227 42.948 51.5227 43.356C51.5227 43.9 51.3107 44.336 50.8867 44.664C50.4707 44.992 49.9347 45.156 49.2787 45.156C48.6947 45.156 48.1947 45.028 47.7787 44.772C47.3627 44.516 47.0667 44.176 46.8907 43.752L47.7907 43.236C47.8867 43.524 48.0667 43.752 48.3307 43.92C48.5947 44.088 48.9107 44.172 49.2787 44.172C49.6227 44.172 49.9067 44.108 50.1307 43.98C50.3547 43.844 50.4667 43.636 50.4667 43.356C50.4667 43.124 50.3507 42.94 50.1187 42.804C49.8867 42.66 49.6067 42.548 49.2787 42.468C48.9507 42.38 48.6227 42.28 48.2947 42.168C47.9667 42.056 47.6867 41.872 47.4547 41.616C47.2227 41.36 47.1067 41.032 47.1067 40.632C47.1067 40.112 47.3067 39.684 47.7067 39.348C48.1147 39.012 48.6227 38.844 49.2307 38.844C49.7187 38.844 50.1507 38.956 50.5267 39.18C50.9107 39.396 51.1987 39.7 51.3907 40.092L50.5147 40.584C50.2987 40.072 49.8707 39.816 49.2307 39.816C48.9347 39.816 48.6827 39.888 48.4747 40.032C48.2667 40.168 48.1627 40.364 48.1627 40.62Z" fill="white"/>
</svg>
