<svg width="20" height="20" viewBox="0 0 20 20" fill="none" xmlns="http://www.w3.org/2000/svg">
<path d="M19.8184 18.9417L1.05835 0.18174C0.881042 0.00427997 0.614471 -0.0488206 0.38269 0.0473098C0.151062 0.143288 0 0.36927 0 0.620124V19.38C0 19.7224 0.277557 20 0.619964 20H19.38C19.6307 20 19.8569 19.8489 19.9527 19.6173C20.0487 19.3857 19.9957 19.119 19.8184 18.9417ZM13.2683 18.7601V17.7257C13.2683 17.3833 12.9907 17.1057 12.6483 17.1057C12.3061 17.1057 12.0283 17.3833 12.0283 17.7257V18.7601H10.5884V18.1012C10.5884 17.7589 10.3108 17.4812 9.96841 17.4812C9.626 17.4812 9.34845 17.7589 9.34845 18.1012V18.7601H7.90832V17.7257C7.90832 17.3833 7.63076 17.1057 7.28836 17.1057C6.94595 17.1057 6.66839 17.3833 6.66839 17.7257V18.7601H5.22842V18.1012C5.22842 17.7589 4.95071 17.4812 4.60846 17.4812C4.26605 17.4812 3.98834 17.7589 3.98834 18.1012V18.7601H1.24008V16.0117H1.8988C2.24121 16.0117 2.51877 15.7341 2.51877 15.3917C2.51877 15.0493 2.24121 14.7717 1.8988 14.7717H1.24008V13.3316H2.27432C2.61673 13.3316 2.89444 13.054 2.89444 12.7116C2.89444 12.3692 2.61673 12.0917 2.27432 12.0917H1.24008V10.6517H1.8988C2.24121 10.6517 2.51877 10.3741 2.51877 10.0317C2.51877 9.68933 2.24121 9.41178 1.8988 9.41178H1.24008V7.97165H2.27432C2.61673 7.97165 2.89444 7.6941 2.89444 7.35169C2.89444 7.00928 2.61673 6.73173 2.27432 6.73173H1.24008V2.11686L17.8831 18.7601H13.2683Z" fill="white"/>
<path d="M4.58558 16.0117H10.2136C10.4643 16.0117 10.6905 15.8606 10.7863 15.629C10.8823 15.3972 10.8293 15.1307 10.6519 14.9533L5.02397 9.32528C4.84666 9.14797 4.57993 9.09503 4.34831 9.191C4.11668 9.28698 3.96561 9.51296 3.96561 9.76367V15.3917C3.96561 15.7341 4.24317 16.0117 4.58558 16.0117ZM5.20555 11.2606L8.71675 14.7718H5.20555V11.2606Z" fill="white"/>
</svg>
