<svg width="60" height="48" viewBox="0 0 60 48" fill="none" xmlns="http://www.w3.org/2000/svg">
<g opacity="0.6">
<path d="M39.8184 20.9417L21.0583 2.18174C20.881 2.00428 20.6145 1.95118 20.3827 2.04731C20.1511 2.14329 20 2.36927 20 2.62012V21.38C20 21.7224 20.2776 22 20.62 22H39.38C39.6307 22 39.8569 21.8489 39.9527 21.6173C40.0487 21.3857 39.9957 21.119 39.8184 20.9417ZM33.2683 20.7601V19.7257C33.2683 19.3833 32.9907 19.1057 32.6483 19.1057C32.3061 19.1057 32.0283 19.3833 32.0283 19.7257V20.7601H30.5884V20.1012C30.5884 19.7589 30.3108 19.4812 29.9684 19.4812C29.626 19.4812 29.3484 19.7589 29.3484 20.1012V20.7601H27.9083V19.7257C27.9083 19.3833 27.6308 19.1057 27.2884 19.1057C26.946 19.1057 26.6684 19.3833 26.6684 19.7257V20.7601H25.2284V20.1012C25.2284 19.7589 24.9507 19.4812 24.6085 19.4812C24.2661 19.4812 23.9883 19.7589 23.9883 20.1012V20.7601H21.2401V18.0117H21.8988C22.2412 18.0117 22.5188 17.7341 22.5188 17.3917C22.5188 17.0493 22.2412 16.7717 21.8988 16.7717H21.2401V15.3316H22.2743C22.6167 15.3316 22.8944 15.054 22.8944 14.7116C22.8944 14.3692 22.6167 14.0917 22.2743 14.0917H21.2401V12.6517H21.8988C22.2412 12.6517 22.5188 12.3741 22.5188 12.0317C22.5188 11.6893 22.2412 11.4118 21.8988 11.4118H21.2401V9.97165H22.2743C22.6167 9.97165 22.8944 9.6941 22.8944 9.35169C22.8944 9.00928 22.6167 8.73173 22.2743 8.73173H21.2401V4.11686L37.8831 20.7601H33.2683Z" fill="white"/>
<path d="M24.5856 18.0117H30.2136C30.4643 18.0117 30.6905 17.8606 30.7863 17.629C30.8823 17.3972 30.8293 17.1307 30.6519 16.9533L25.024 11.3253C24.8467 11.148 24.5799 11.095 24.3483 11.191C24.1167 11.287 23.9656 11.513 23.9656 11.7637V17.3917C23.9656 17.7341 24.2432 18.0117 24.5856 18.0117ZM25.2055 13.2606L28.7168 16.7718H25.2055V13.2606Z" fill="white"/>
</g>
<path d="M16.5791 36.6H17.5391V45H16.4351V37.8L14.6471 38.328L14.3711 37.368L16.5791 36.6ZM19.9325 45.132C19.7165 45.132 19.5325 45.056 19.3805 44.904C19.2285 44.752 19.1525 44.568 19.1525 44.352C19.1525 44.136 19.2285 43.952 19.3805 43.8C19.5325 43.648 19.7165 43.572 19.9325 43.572C20.1565 43.572 20.3405 43.648 20.4845 43.8C20.6365 43.952 20.7125 44.136 20.7125 44.352C20.7125 44.568 20.6365 44.752 20.4845 44.904C20.3405 45.056 20.1565 45.132 19.9325 45.132ZM26.2944 40.656C26.7024 40.864 27.0224 41.144 27.2544 41.496C27.4864 41.848 27.6024 42.248 27.6024 42.696C27.6024 43.464 27.3344 44.068 26.7984 44.508C26.2624 44.94 25.5704 45.156 24.7224 45.156C23.8824 45.156 23.1944 44.94 22.6584 44.508C22.1224 44.068 21.8544 43.464 21.8544 42.696C21.8544 42.248 21.9704 41.848 22.2024 41.496C22.4344 41.144 22.7544 40.864 23.1624 40.656C22.4744 40.224 22.1304 39.612 22.1304 38.82C22.1304 38.06 22.3824 37.476 22.8864 37.068C23.3984 36.652 24.0104 36.444 24.7224 36.444C25.4424 36.444 26.0544 36.652 26.5584 37.068C27.0704 37.476 27.3264 38.06 27.3264 38.82C27.3264 39.612 26.9824 40.224 26.2944 40.656ZM24.7224 37.512C24.2984 37.512 23.9424 37.624 23.6544 37.848C23.3744 38.072 23.2344 38.404 23.2344 38.844C23.2344 39.268 23.3784 39.6 23.6664 39.84C23.9544 40.072 24.3064 40.188 24.7224 40.188C25.1384 40.188 25.4904 40.072 25.7784 39.84C26.0664 39.6 26.2104 39.268 26.2104 38.844C26.2104 38.404 26.0704 38.072 25.7904 37.848C25.5104 37.624 25.1544 37.512 24.7224 37.512ZM24.7224 44.088C25.2584 44.088 25.6864 43.964 26.0064 43.716C26.3344 43.46 26.4984 43.096 26.4984 42.624C26.4984 42.16 26.3344 41.804 26.0064 41.556C25.6864 41.3 25.2584 41.172 24.7224 41.172C24.1944 41.172 23.7664 41.3 23.4384 41.556C23.1184 41.804 22.9584 42.16 22.9584 42.624C22.9584 43.096 23.1184 43.46 23.4384 43.716C23.7664 43.964 24.1944 44.088 24.7224 44.088ZM34.2227 43.968C33.6547 44.76 32.8587 45.156 31.8347 45.156C30.8107 45.156 30.0147 44.76 29.4467 43.968C28.8787 43.176 28.5947 42.12 28.5947 40.8C28.5947 39.48 28.8787 38.424 29.4467 37.632C30.0147 36.84 30.8107 36.444 31.8347 36.444C32.8587 36.444 33.6547 36.84 34.2227 37.632C34.7907 38.424 35.0747 39.48 35.0747 40.8C35.0747 42.12 34.7907 43.176 34.2227 43.968ZM30.2627 43.212C30.6307 43.78 31.1547 44.064 31.8347 44.064C32.5147 44.064 33.0387 43.78 33.4067 43.212C33.7827 42.644 33.9707 41.84 33.9707 40.8C33.9707 39.76 33.7827 38.956 33.4067 38.388C33.0387 37.812 32.5147 37.524 31.8347 37.524C31.1547 37.524 30.6307 37.808 30.2627 38.376C29.8947 38.944 29.7107 39.752 29.7107 40.8C29.7107 41.84 29.8947 42.644 30.2627 43.212ZM42.8853 38.844C43.5573 38.844 44.1013 39.064 44.5173 39.504C44.9333 39.936 45.1413 40.524 45.1413 41.268V45H44.0973V41.304C44.0973 40.84 43.9773 40.48 43.7373 40.224C43.4973 39.968 43.1773 39.84 42.7773 39.84C42.3293 39.84 41.9693 39.992 41.6973 40.296C41.4333 40.592 41.3013 41.048 41.3013 41.664V45H40.2573V41.304C40.2573 40.84 40.1413 40.48 39.9093 40.224C39.6853 39.968 39.3773 39.84 38.9853 39.84C38.5453 39.84 38.1773 39.992 37.8813 40.296C37.5933 40.6 37.4493 41.056 37.4493 41.664V45H36.4053V39H37.4493V39.804C37.8573 39.164 38.4533 38.844 39.2373 38.844C40.0453 38.844 40.6333 39.184 41.0013 39.864C41.4173 39.184 42.0453 38.844 42.8853 38.844Z" fill="white"/>
</svg>
