<svg width="60" height="48" viewBox="0 0 60 48" fill="none" xmlns="http://www.w3.org/2000/svg">
<g opacity="0.6">
<path d="M37.2568 2.4834C36.4575 2.87321 35.4443 3.51335 34.3114 4.34253C31.0188 2.48161 26.6676 2.89509 23.7777 5.78498C20.8813 8.68136 20.4773 13.0313 22.3353 16.3186C21.507 17.4504 20.8682 18.4624 20.4798 19.2607C20.1156 20.0093 19.7016 21.0748 20.309 21.6822C20.8264 22.1996 21.6586 21.9914 22.3317 21.7143C23.4251 21.2642 24.74 20.3625 25.686 19.6633C28.9366 21.4929 33.2871 21.1325 36.2062 18.2134C39.1015 15.3181 39.5004 10.9708 37.6564 7.69387C37.8356 7.45155 38.0073 7.21345 38.1699 6.98062C38.9017 5.93317 39.421 5.04227 39.7136 4.33265C39.8575 3.98354 40.2955 2.92118 39.6828 2.30842C39.0753 1.70101 38.0073 2.11738 37.2568 2.4834ZM30.1457 4.38843C30.6503 4.39831 31.1467 4.45686 31.6295 4.56177L29.6782 6.51308C28.4341 7.75719 27.749 9.41129 27.749 11.1707C27.749 12.6171 27.1857 13.977 26.1629 14.9998L24.2078 16.9549C23.3565 15.9637 22.8112 14.818 22.5545 13.6368L24.1248 12.0665C25.0387 11.1526 25.7952 10.103 26.3732 8.947C26.8948 7.90381 27.5774 6.95671 28.4021 6.13206L30.1457 4.38843ZM26.9914 15.8283C28.2355 14.5842 28.9207 12.9301 28.9207 11.1707C28.9207 9.72423 29.484 8.3644 30.5067 7.3416L32.8934 4.9549C33.817 5.3342 34.6599 5.89591 35.3776 6.61358C35.695 6.93101 35.9808 7.2718 36.2336 7.63196C34.8811 9.38087 33.1413 11.3356 31.2348 13.2421C29.3274 15.1494 27.3725 16.8892 25.6242 18.2406C25.4219 18.0986 25.2257 17.946 25.0363 17.7833L26.9914 15.8283ZM24.6063 6.61354C25.637 5.58285 26.9131 4.88455 28.3045 4.57243L27.5735 5.30346C26.6596 6.21732 25.9031 7.26692 25.3251 8.42295C24.8035 9.46613 24.1208 10.4132 23.2962 11.2379L22.3811 12.153C22.3801 12.1018 22.3792 12.0505 22.3792 11.9992C22.3793 9.96234 23.1702 8.04966 24.6063 6.61354ZM24.6401 18.976C22.31 20.6523 21.4169 20.8215 21.1695 20.8276C21.1824 20.495 21.5314 19.4604 23.0277 17.3607C23.2576 17.6583 23.5076 17.9433 23.7777 18.2135C24.0519 18.4876 24.3413 18.7408 24.6436 18.9734L24.6401 18.976ZM35.3776 17.3849C33.9415 18.821 32.0289 19.6119 29.992 19.6119C29.9406 19.6119 29.8894 19.6111 29.8382 19.6101L31.137 18.3113C31.679 17.7692 32.3499 17.3546 33.0772 17.1122C33.9761 16.8125 34.8054 16.3 35.4754 15.63L37.4188 13.6866C37.1066 15.078 36.4083 16.3542 35.3776 17.3849ZM37.6028 11.8455L34.6469 14.8014C34.1048 15.3435 33.4339 15.7581 32.7067 16.0005C31.8078 16.3002 30.9785 16.8127 30.3085 17.4827L28.3545 19.4367C27.7857 19.3131 27.2359 19.1253 26.7138 18.8766C28.4 17.5441 30.2449 15.8891 32.0634 14.0706C33.8812 12.2528 35.5362 10.4082 36.8696 8.72151C37.3292 9.68662 37.5813 10.7465 37.6028 11.8455ZM36.9721 6.644C36.9703 6.64647 36.9685 6.649 36.9667 6.6515C36.7339 6.34895 36.4805 6.05929 36.2062 5.78498C35.936 5.51481 35.651 5.26479 35.3534 5.03493C37.4564 3.53589 38.4934 3.184 38.8278 3.16971C38.8211 3.41879 38.6491 4.31382 36.9721 6.644Z" fill="white"/>
<path d="M32.4777 10.3421C32.9356 9.88418 32.9357 9.14292 32.4777 8.68495C32.0198 8.22703 31.2785 8.22695 30.8206 8.68495C30.3626 9.14284 30.3625 9.8841 30.8206 10.3421C31.2784 10.8 32.0197 10.8001 32.4777 10.3421Z" fill="white"/>
</g>
<path d="M12.8385 36.6V37.656H10.3545V45H9.2505V37.656H6.7785V36.6H12.8385ZM13.4771 42.48C13.5811 43.016 13.8251 43.432 14.2091 43.728C14.6011 44.024 15.0811 44.172 15.6491 44.172C16.4411 44.172 17.0171 43.88 17.3771 43.296L18.2651 43.8C17.6811 44.704 16.8011 45.156 15.6251 45.156C14.6731 45.156 13.8971 44.86 13.2971 44.268C12.7051 43.668 12.4091 42.912 12.4091 42C12.4091 41.096 12.7011 40.344 13.2851 39.744C13.8691 39.144 14.6251 38.844 15.5531 38.844C16.4331 38.844 17.1491 39.156 17.7011 39.78C18.2611 40.396 18.5411 41.14 18.5411 42.012C18.5411 42.164 18.5291 42.32 18.5051 42.48H13.4771ZM15.5531 39.828C14.9931 39.828 14.5291 39.988 14.1611 40.308C13.7931 40.62 13.5651 41.04 13.4771 41.568H17.4851C17.3971 41 17.1731 40.568 16.8131 40.272C16.4531 39.976 16.0331 39.828 15.5531 39.828ZM20.7852 40.008C21.1292 39.264 21.7532 38.892 22.6572 38.892V39.984C22.1452 39.96 21.7052 40.096 21.3372 40.392C20.9692 40.688 20.7852 41.164 20.7852 41.82V45H19.7412V39H20.7852V40.008ZM24.7227 40.008C25.0667 39.264 25.6907 38.892 26.5947 38.892V39.984C26.0827 39.96 25.6427 40.096 25.2747 40.392C24.9067 40.688 24.7227 41.164 24.7227 41.82V45H23.6787V39H24.7227V40.008ZM32.2561 39H33.3001V45H32.2561V43.968C31.7361 44.76 30.9801 45.156 29.9881 45.156C29.1481 45.156 28.4321 44.852 27.8401 44.244C27.2481 43.628 26.9521 42.88 26.9521 42C26.9521 41.12 27.2481 40.376 27.8401 39.768C28.4321 39.152 29.1481 38.844 29.9881 38.844C30.9801 38.844 31.7361 39.24 32.2561 40.032V39ZM30.1201 44.148C30.7281 44.148 31.2361 43.944 31.6441 43.536C32.0521 43.12 32.2561 42.608 32.2561 42C32.2561 41.392 32.0521 40.884 31.6441 40.476C31.2361 40.06 30.7281 39.852 30.1201 39.852C29.5201 39.852 29.0161 40.06 28.6081 40.476C28.2001 40.884 27.9961 41.392 27.9961 42C27.9961 42.608 28.2001 43.12 28.6081 43.536C29.0161 43.944 29.5201 44.148 30.1201 44.148ZM40.3178 39.504C41.1578 39.504 41.8498 39.768 42.3938 40.296C42.9378 40.816 43.2098 41.492 43.2098 42.324C43.2098 43.156 42.9378 43.836 42.3938 44.364C41.8498 44.892 41.1578 45.156 40.3178 45.156C39.4698 45.156 38.7738 44.892 38.2298 44.364C37.6938 43.836 37.4258 43.156 37.4258 42.324C37.4258 41.676 37.5938 41.116 37.9298 40.644L40.6298 36.6H41.9018L39.9218 39.528C40.0978 39.512 40.2298 39.504 40.3178 39.504ZM39.0218 43.608C39.3578 43.928 39.7898 44.088 40.3178 44.088C40.8458 44.088 41.2738 43.928 41.6018 43.608C41.9378 43.28 42.1058 42.852 42.1058 42.324C42.1058 41.796 41.9378 41.372 41.6018 41.052C41.2738 40.732 40.8458 40.572 40.3178 40.572C39.7818 40.572 39.3498 40.732 39.0218 41.052C38.6938 41.372 38.5298 41.796 38.5298 42.324C38.5298 42.852 38.6938 43.28 39.0218 43.608ZM45.0791 36.6H46.0391V45H44.9351V37.8L43.1471 38.328L42.8711 37.368L45.0791 36.6ZM50.2085 39.504C51.0485 39.504 51.7405 39.768 52.2845 40.296C52.8285 40.816 53.1005 41.492 53.1005 42.324C53.1005 43.156 52.8285 43.836 52.2845 44.364C51.7405 44.892 51.0485 45.156 50.2085 45.156C49.3605 45.156 48.6645 44.892 48.1205 44.364C47.5845 43.836 47.3165 43.156 47.3165 42.324C47.3165 41.676 47.4845 41.116 47.8205 40.644L50.5205 36.6H51.7925L49.8125 39.528C49.9885 39.512 50.1205 39.504 50.2085 39.504ZM48.9125 43.608C49.2485 43.928 49.6805 44.088 50.2085 44.088C50.7365 44.088 51.1645 43.928 51.4925 43.608C51.8285 43.28 51.9965 42.852 51.9965 42.324C51.9965 41.796 51.8285 41.372 51.4925 41.052C51.1645 40.732 50.7365 40.572 50.2085 40.572C49.6725 40.572 49.2405 40.732 48.9125 41.052C48.5845 41.372 48.4205 41.796 48.4205 42.324C48.4205 42.852 48.5845 43.28 48.9125 43.608Z" fill="white"/>
</svg>
