<svg width="60" height="48" viewBox="0 0 60 48" fill="none" xmlns="http://www.w3.org/2000/svg">
<g opacity="0.6">
<path d="M34.6746 9.41016L35.6046 7.64008C36.2276 6.45422 36.1843 5.00531 35.4915 3.85879C34.7987 2.71227 33.5363 2 32.1967 2H27.8033C26.4638 2 25.2012 2.71227 24.5085 3.85875C23.8157 5.00527 23.7724 6.45418 24.3954 7.64004L25.3254 9.41016C23.3537 10.8541 22.0706 13.1853 22.0706 15.8109C22.0706 17.748 22.7769 19.6133 24.0596 21.0629C24.5866 21.6584 25.3453 22 26.141 22H33.859C34.6548 22 35.4134 21.6584 35.9404 21.0629C37.223 19.6132 37.9294 17.7481 37.9294 15.8109C37.9294 13.1853 36.6463 10.8541 34.6746 9.41016ZM25.6245 4.53309C26.0826 3.77484 26.9175 3.30387 27.8033 3.30387H32.1967C33.0825 3.30387 33.9174 3.77484 34.3756 4.53309C34.8337 5.29133 34.8623 6.24949 34.4503 7.03371L33.5618 8.72492C33.1435 8.51395 32.7092 8.34156 32.2613 8.20867L33.0683 6.67277C33.2867 6.25699 33.2715 5.74895 33.0286 5.34699C32.7857 4.94496 32.3431 4.69523 31.8733 4.69523H28.1265C27.6569 4.69523 27.2142 4.94496 26.9712 5.34699C26.7284 5.74902 26.7131 6.25699 26.9316 6.67285L27.7385 8.20871C27.2907 8.3416 26.8563 8.51402 26.4381 8.72496L25.5495 7.03375C25.1377 6.24941 25.1663 5.29125 25.6245 4.53309ZM31.9141 6.06637L30.9315 7.93652C30.6259 7.90059 30.3152 7.88156 30.0001 7.88156C29.685 7.88156 29.3743 7.90063 29.0687 7.93652L28.086 6.06641C28.0786 6.05223 28.079 6.03488 28.0874 6.02121C28.0956 6.00754 28.1107 5.99906 28.1267 5.99906H31.8735C31.8894 5.99906 31.9045 6.00754 31.9128 6.02121C31.921 6.03488 31.9215 6.05223 31.9141 6.06637ZM34.9639 20.1988C34.6842 20.5149 34.2815 20.6962 33.859 20.6962H26.141C25.7185 20.6962 25.3158 20.5149 25.0362 20.1988C23.9646 18.9878 23.3745 17.4295 23.3745 15.8109C23.3745 12.1576 26.3467 9.18539 30 9.18539C33.6533 9.18539 36.6256 12.1576 36.6256 15.8109C36.6256 17.4295 36.0354 18.9878 34.9639 20.1988Z" fill="white"/>
</g>
<path d="M17.6359 36.6H22.8799V37.596L19.8199 45H18.6559L21.6919 37.656H17.6359V36.6ZM27.73 40.656C28.138 40.864 28.458 41.144 28.69 41.496C28.922 41.848 29.038 42.248 29.038 42.696C29.038 43.464 28.77 44.068 28.234 44.508C27.698 44.94 27.006 45.156 26.158 45.156C25.318 45.156 24.63 44.94 24.094 44.508C23.558 44.068 23.29 43.464 23.29 42.696C23.29 42.248 23.406 41.848 23.638 41.496C23.87 41.144 24.19 40.864 24.598 40.656C23.91 40.224 23.566 39.612 23.566 38.82C23.566 38.06 23.818 37.476 24.322 37.068C24.834 36.652 25.446 36.444 26.158 36.444C26.878 36.444 27.49 36.652 27.994 37.068C28.506 37.476 28.762 38.06 28.762 38.82C28.762 39.612 28.418 40.224 27.73 40.656ZM26.158 37.512C25.734 37.512 25.378 37.624 25.09 37.848C24.81 38.072 24.67 38.404 24.67 38.844C24.67 39.268 24.814 39.6 25.102 39.84C25.39 40.072 25.742 40.188 26.158 40.188C26.574 40.188 26.926 40.072 27.214 39.84C27.502 39.6 27.646 39.268 27.646 38.844C27.646 38.404 27.506 38.072 27.226 37.848C26.946 37.624 26.59 37.512 26.158 37.512ZM26.158 44.088C26.694 44.088 27.122 43.964 27.442 43.716C27.77 43.46 27.934 43.096 27.934 42.624C27.934 42.16 27.77 41.804 27.442 41.556C27.122 41.3 26.694 41.172 26.158 41.172C25.63 41.172 25.202 41.3 24.874 41.556C24.554 41.804 24.394 42.16 24.394 42.624C24.394 43.096 24.554 43.46 24.874 43.716C25.202 43.964 25.63 44.088 26.158 44.088ZM35.3582 45H34.0622L31.3262 42.156V45H30.2822V36.6H31.3262V41.652L33.9182 39H35.2622L32.3942 41.904L35.3582 45ZM40.7583 39H41.7903V44.748C41.7903 45.636 41.4903 46.324 40.8903 46.812C40.2903 47.308 39.5703 47.556 38.7303 47.556C38.0583 47.556 37.4783 47.428 36.9903 47.172C36.5023 46.924 36.1343 46.564 35.8863 46.092L36.7983 45.576C37.1263 46.248 37.7783 46.584 38.7543 46.584C39.3783 46.584 39.8663 46.42 40.2183 46.092C40.5783 45.764 40.7583 45.316 40.7583 44.748V43.896C40.2303 44.696 39.4783 45.096 38.5023 45.096C37.6463 45.096 36.9223 44.792 36.3303 44.184C35.7383 43.576 35.4423 42.836 35.4423 41.964C35.4423 41.092 35.7383 40.356 36.3303 39.756C36.9223 39.148 37.6463 38.844 38.5023 38.844C39.4863 38.844 40.2383 39.24 40.7583 40.032V39ZM37.0983 43.488C37.5063 43.896 38.0143 44.1 38.6223 44.1C39.2303 44.1 39.7383 43.896 40.1463 43.488C40.5543 43.08 40.7583 42.572 40.7583 41.964C40.7583 41.364 40.5543 40.86 40.1463 40.452C39.7383 40.044 39.2303 39.84 38.6223 39.84C38.0143 39.84 37.5063 40.044 37.0983 40.452C36.6903 40.86 36.4863 41.364 36.4863 41.964C36.4863 42.572 36.6903 43.08 37.0983 43.488Z" fill="white"/>
</svg>
